<?xml version="1.0" standalone="no"?>
<!DOCTYPE svg PUBLIC "-//W3C//DTD SVG 20010904//EN"
 "http://www.w3.org/TR/2001/REC-SVG-20010904/DTD/svg10.dtd">
<svg version="1.0" xmlns="http://www.w3.org/2000/svg"
 width="863.000000pt" height="445.000000pt" viewBox="0 0 863.000000 445.000000"
 preserveAspectRatio="xMidYMid meet">

<g transform="translate(0.000000,445.000000) scale(0.100000,-0.100000)"
fill="#000000" stroke="none">
<path d="M3036 3038 c-14 -20 -16 -94 -16 -601 0 -379 4 -585 10 -598 6 -10
19 -19 30 -19 11 0 24 9 30 19 6 13 10 219 10 598 0 507 -2 581 -16 601 -8 12
-19 22 -24 22 -5 0 -16 -10 -24 -22z"/>
<path d="M1497 3032 c-23 -26 -21 -58 5 -76 16 -12 47 -16 113 -16 100 0 135
14 135 54 0 45 -28 56 -137 56 -84 0 -103 -3 -116 -18z"/>
<path d="M5855 3036 c-20 -14 -20 -15 5 -41 l25 -27 0 -252 c0 -247 0 -252
-23 -280 -16 -21 -20 -32 -12 -40 12 -12 154 -15 165 -4 4 4 0 24 -10 43 -13
30 -16 59 -13 155 3 135 13 156 79 166 28 5 41 1 66 -20 27 -23 30 -32 35
-103 5 -73 -2 -163 -17 -225 l-7 -28 80 0 c47 0 84 5 88 11 3 6 -5 23 -19 37
-23 25 -25 36 -30 159 -4 94 -10 142 -23 168 -31 65 -101 82 -193 45 -38 -15
-52 -17 -58 -7 -4 7 -10 66 -13 132 l-5 120 -50 3 c-32 2 -57 -2 -70 -12z"/>
<path d="M3410 2998 c-60 -31 -90 -77 -90 -140 0 -88 31 -125 165 -192 102
-51 114 -60 139 -98 24 -37 14 -90 -21 -118 -19 -15 -40 -20 -87 -20 l-61 0
-61 65 c-70 74 -84 72 -84 -10 0 -84 53 -110 206 -103 148 6 214 57 214 166 0
94 -29 128 -170 197 -118 57 -150 86 -150 135 0 46 22 77 65 89 58 16 104 -2
158 -60 37 -40 51 -49 60 -40 14 14 15 107 1 121 -14 14 -115 30 -184 30 -38
0 -70 -7 -100 -22z"/>
<path d="M6984 2888 c-14 -29 -38 -63 -53 -75 l-26 -21 25 -27 c23 -24 25 -36
31 -163 7 -148 15 -181 51 -206 32 -23 106 -20 146 4 46 28 37 46 -20 42 -69
-5 -78 13 -78 163 0 135 4 146 62 165 55 17 55 28 -1 51 -46 20 -50 24 -61 70
-16 68 -41 67 -76 -3z"/>
<path d="M1375 2889 c-49 -12 -82 -42 -96 -88 -7 -24 -9 -179 -7 -446 3 -455
2 -447 72 -500 69 -53 186 -41 186 20 0 36 -26 55 -74 55 -80 0 -77 -18 -74
446 l3 409 655 0 655 0 3 -412 c2 -364 0 -413 -14 -427 -14 -14 -73 -16 -515
-16 -326 0 -507 -4 -520 -10 -25 -14 -25 -61 -1 -83 17 -15 67 -17 513 -17
303 0 508 4 531 10 51 15 105 77 113 132 3 24 5 226 3 450 l-3 407 -28 29
c-17 17 -48 35 -72 41 -55 14 -1271 13 -1330 0z"/>
<path d="M4510 2814 c-66 -18 -102 -48 -98 -84 5 -40 40 -37 88 6 69 63 142
41 142 -42 0 -45 -16 -60 -75 -70 -60 -10 -142 -48 -161 -75 -19 -27 -21 -87
-5 -123 13 -28 64 -56 103 -56 14 0 51 10 82 21 54 20 59 21 85 5 31 -18 66
-20 103 -6 33 12 33 33 1 48 -31 14 -34 28 -37 184 -3 119 -4 128 -28 153 -14
15 -32 30 -40 35 -32 16 -106 19 -160 4z m134 -239 c3 -9 3 -36 -1 -61 -8 -59
-40 -86 -97 -82 -78 6 -88 87 -17 135 40 27 106 31 115 8z"/>
<path d="M5080 2810 c-42 -20 -47 -20 -72 -6 -30 18 -65 20 -102 6 -32 -12
-33 -26 -3 -50 21 -18 22 -25 25 -207 4 -224 -2 -281 -33 -327 -13 -19 -21
-37 -17 -40 8 -8 202 -7 202 1 0 4 -12 19 -26 34 -30 32 -44 112 -25 146 9 18
20 21 85 20 65 0 81 3 115 26 67 44 94 95 99 186 4 63 1 86 -16 123 -41 94
-140 131 -232 88z m92 -51 c31 -17 58 -86 58 -154 0 -83 -15 -129 -52 -160
-27 -22 -39 -26 -71 -22 -73 10 -82 29 -82 173 0 125 0 126 28 150 30 26 83
32 119 13z"/>
<path d="M5543 2820 c-73 -17 -117 -74 -106 -135 8 -44 39 -72 125 -116 89
-45 117 -77 100 -114 -25 -54 -118 -46 -174 16 -20 22 -42 38 -48 34 -5 -3
-10 -26 -10 -50 0 -64 27 -79 139 -79 127 0 182 38 183 126 1 58 -26 87 -119
133 -98 48 -113 61 -113 91 0 34 26 54 71 54 33 0 46 -7 80 -41 49 -50 63 -42
60 34 -1 19 -8 30 -23 36 -37 13 -130 20 -165 11z"/>
<path d="M6557 2816 c-67 -18 -97 -43 -129 -106 -71 -138 -7 -301 130 -332
136 -30 256 59 269 201 11 121 -52 218 -159 240 -58 13 -50 13 -111 -3z m111
-59 c35 -37 52 -91 52 -167 0 -115 -36 -170 -110 -170 -69 0 -110 72 -110 192
0 113 36 168 110 168 25 0 43 -7 58 -23z"/>
<path d="M3895 2813 c-11 -2 -30 -6 -42 -9 -29 -6 -29 -21 -1 -51 21 -22 23
-33 23 -159 l0 -136 -30 -24 c-44 -35 -23 -49 75 -49 43 0 81 3 85 7 4 3 0 17
-9 30 -20 31 -30 132 -21 214 9 85 41 124 102 124 44 0 55 -6 73 -40 19 -35
20 -244 1 -288 -7 -18 -10 -36 -6 -40 9 -9 135 -9 159 1 18 7 17 10 -12 37
l-32 29 0 113 c0 62 -5 131 -10 153 -21 92 -117 122 -221 69 l-50 -25 -20 25
c-20 26 -26 28 -64 19z"/>
<path d="M1503 2705 c-17 -7 -36 -22 -42 -34 -6 -11 -11 -76 -11 -151 l0 -132
29 -29 c29 -28 32 -29 130 -29 110 0 143 10 160 47 14 31 15 268 0 295 -6 11
-26 26 -44 34 -44 18 -180 18 -222 -1z m167 -180 l0 -85 -55 0 -55 0 0 85 0
85 55 0 55 0 0 -85z"/>
<path d="M2127 2700 c-168 -53 -278 -229 -250 -396 15 -87 47 -150 107 -208
65 -64 140 -97 227 -104 112 -8 201 24 281 101 113 109 142 266 77 416 -21 51
-68 101 -93 101 -18 0 -46 -33 -46 -53 0 -10 15 -43 33 -75 28 -50 32 -66 31
-127 -1 -152 -106 -258 -254 -258 -106 0 -173 39 -228 133 -23 39 -27 56 -27
125 0 69 4 86 27 126 54 92 135 133 250 127 89 -5 112 8 106 59 -2 22 -11 31
-38 40 -51 17 -137 15 -203 -7z"/>
<path d="M3390 1923 l-1 -38 -27 33 c-15 18 -30 32 -34 32 -5 0 -7 -21 -7 -47
l2 -48 6 40 6 40 25 -37 c14 -21 28 -38 33 -38 4 0 7 23 7 50 0 28 -2 50 -5
50 -3 0 -5 -17 -5 -37z"/>
<path d="M4024 1949 c-12 -19 -12 -99 0 -99 7 0 11 22 11 55 0 59 0 61 -11 44z"/>
<path d="M4110 1905 c0 -30 5 -55 10 -55 6 0 10 11 10 25 0 14 4 25 8 25 5 0
15 -11 22 -25 12 -22 38 -38 28 -17 -2 4 -10 19 -17 34 -13 25 -12 30 4 48 10
11 15 20 11 20 -4 0 -18 -12 -31 -27 l-24 -28 -1 28 c0 15 -4 27 -10 27 -5 0
-10 -25 -10 -55z"/>
<path d="M4515 1905 c0 -40 4 -55 14 -55 8 0 11 6 7 16 -3 9 -6 33 -6 55 0 21
-3 39 -7 39 -5 0 -8 -25 -8 -55z"/>
<path d="M4684 1911 c2 -70 16 -76 16 -8 0 32 -4 57 -9 57 -5 0 -8 -22 -7 -49z"/>
<path d="M4930 1949 c0 -5 5 -7 10 -4 6 3 10 8 10 11 0 2 -4 4 -10 4 -5 0 -10
-5 -10 -11z"/>
<path d="M5230 1905 c0 -50 2 -55 23 -55 37 0 46 13 43 55 -5 52 -7 55 -15 25
-4 -14 -4 -30 1 -37 12 -15 2 -33 -17 -33 -17 0 -18 81 -1 92 6 5 2 8 -11 8
-21 0 -23 -5 -23 -55z"/>
<path d="M5325 1905 c0 -40 4 -55 14 -55 9 0 11 7 7 23 -3 12 -6 37 -6 55 0
17 -3 32 -7 32 -5 0 -8 -25 -8 -55z"/>
<path d="M5518 1910 c2 -27 8 -50 14 -50 5 0 6 5 3 10 -3 6 -2 10 4 10 5 0 13
-4 16 -10 3 -5 11 -10 17 -10 6 0 4 8 -5 18 -11 12 -14 22 -7 30 7 9 7 9 -2 2
-20 -17 -28 -11 -28 20 0 17 -3 30 -7 30 -5 0 -6 -22 -5 -50z"/>
<path d="M3767 1934 c-7 -7 2 -65 12 -77 4 -4 7 11 6 33 -1 40 -7 55 -18 44z"/>
<path d="M3555 1905 c0 -18 3 -21 13 -13 6 6 12 14 12 18 0 4 -6 10 -12 13 -8
3 -13 -4 -13 -18z"/>
<path d="M3638 1904 c2 -13 8 -21 13 -18 14 8 11 31 -4 37 -10 4 -13 -2 -9
-19z"/>
<path d="M3720 1915 c10 -12 10 -15 -3 -15 -8 0 -17 6 -20 13 -3 8 -7 6 -12
-7 -10 -23 6 -50 31 -54 18 -3 18 -2 2 8 -24 15 -23 30 2 30 24 0 27 25 4 34
-14 5 -15 4 -4 -9z"/>
<path d="M3963 1916 c9 -10 17 -21 17 -26 0 -5 -8 -16 -17 -26 -12 -12 -13
-16 -4 -13 25 9 37 37 25 56 -6 9 -17 19 -25 22 -9 3 -8 -1 4 -13z"/>
<path d="M4323 1923 c-18 -7 -16 -60 2 -67 8 -3 22 -3 30 0 20 8 19 60 -1 68
-9 3 -16 6 -17 5 -1 0 -8 -3 -14 -6z m32 -33 c0 -27 -22 -39 -31 -16 -8 22 3
49 19 43 6 -2 12 -14 12 -27z"/>
<path d="M4572 1918 c-11 -11 -17 -58 -8 -58 2 0 13 -3 23 -6 17 -5 17 -5 1 6
-26 16 -22 30 7 30 26 0 33 14 13 26 -7 4 -8 3 -4 -4 5 -8 -1 -12 -15 -12 -18
0 -19 2 -9 15 15 18 9 20 -8 3z"/>
<path d="M4773 1913 c-3 -10 -8 -22 -11 -27 -3 -5 0 -6 5 -3 11 7 25 47 17 47
-3 0 -7 -8 -11 -17z"/>
<path d="M4822 1921 c-21 -13 -11 -65 13 -69 18 -2 18 -2 3 8 -24 15 -23 30 1
30 23 0 36 16 21 25 -5 3 -10 1 -10 -4 0 -6 -7 -11 -16 -11 -14 0 -14 3 -4 15
14 17 11 19 -8 6z"/>
<path d="M5018 1918 c5 -7 12 -26 15 -43 4 -28 4 -28 6 6 1 26 -4 39 -15 43
-13 5 -14 3 -6 -6z"/>
<path d="M5137 1917 c4 -6 7 -22 8 -34 0 -12 3 -25 8 -29 4 -4 7 9 7 28 0 23
-6 38 -16 42 -10 4 -13 2 -7 -7z"/>
<path d="M5468 1889 c2 -21 8 -39 13 -39 14 0 11 56 -4 68 -10 8 -12 2 -9 -29z"/>
<path d="M3430 1896 c0 -13 6 -28 13 -34 10 -9 12 -4 9 23 -5 39 -22 48 -22
11z"/>
<path d="M3478 1891 c-3 -19 0 -32 8 -35 10 -4 12 3 7 27 -8 42 -10 43 -15 8z"/>
<path d="M3529 1918 c-1 -2 -2 -25 -4 -51 -3 -47 -3 -48 23 -45 25 3 46 38 23
38 -6 0 -8 -7 -5 -15 4 -10 0 -15 -13 -15 -17 0 -19 7 -18 45 2 37 -1 56 -6
43z"/>
<path d="M3607 1913 c-2 -5 -3 -26 -3 -48 1 -30 5 -41 20 -43 10 -2 22 0 28 6
6 6 1 8 -15 5 -22 -4 -24 -2 -21 41 2 44 0 55 -9 39z"/>
<path d="M3820 1906 c0 -7 7 -16 15 -20 8 -3 15 -10 15 -17 0 -6 -7 -9 -15 -5
-8 3 -15 1 -15 -4 0 -14 37 -13 46 1 3 6 -5 22 -20 35 -18 17 -26 20 -26 10z"/>
<path d="M3925 1899 c-4 -12 -2 -26 4 -32 8 -8 11 -2 11 21 0 37 -6 41 -15 11z"/>
<path d="M4220 1890 c0 -16 4 -30 8 -30 5 0 9 14 10 30 0 17 -4 30 -9 30 -5 0
-9 -13 -9 -30z"/>
<path d="M4268 1885 c2 -19 6 -35 8 -35 2 0 4 16 4 35 0 19 -4 35 -8 35 -4 0
-6 -16 -4 -35z"/>
<path d="M4401 1890 c12 -34 24 -38 33 -13 6 15 8 14 20 -2 13 -18 14 -18 25
3 6 11 11 27 10 34 0 7 -5 2 -11 -12 l-10 -25 -9 23 c-4 12 -13 22 -18 22 -5
0 -12 -10 -14 -22 l-4 -23 -8 23 c-4 12 -11 22 -16 22 -4 0 -3 -13 2 -30z"/>
<path d="M4644 1906 c-9 -22 -1 -49 16 -54 13 -5 13 -3 1 11 -7 9 -11 26 -8
37 6 23 -1 27 -9 6z"/>
<path d="M4731 1886 c-1 -29 2 -37 10 -29 8 8 8 19 1 40 -10 28 -10 28 -11
-11z"/>
<path d="M4930 1885 c0 -19 5 -35 10 -35 6 0 10 16 10 35 0 19 -4 35 -10 35
-5 0 -10 -16 -10 -35z"/>
<path d="M4980 1890 c0 -39 15 -39 16 0 1 17 -3 30 -7 30 -5 0 -9 -13 -9 -30z"/>
<path d="M5378 1885 c-2 -21 0 -35 7 -35 7 0 9 14 7 35 -2 19 -5 35 -7 35 -2
0 -5 -16 -7 -35z"/>
<path d="M5428 1890 c2 -16 5 -30 7 -30 2 0 5 14 7 30 3 19 0 30 -7 30 -7 0
-10 -11 -7 -30z"/>
<path d="M5106 1881 c-5 -7 -3 -18 3 -24 14 -14 20 -6 11 17 -5 15 -9 16 -14
7z"/>
<path d="M4777 1843 c5 -14 1 -15 -28 -9 -24 5 -30 3 -22 -5 16 -16 57 -7 61
14 2 9 -1 17 -7 17 -6 0 -8 -7 -4 -17z"/>
</g>
</svg>
